<svg width="325" height="1033" viewBox="0 0 325 1033" fill="none" xmlns="http://www.w3.org/2000/svg">
<path d="M91.9988 8.00013C60.3391 -8.98503 -0.00115967 8.00013 -0.00115967 8.00013V24.5001C-0.144241 404.968 -339.749 1207.77 -22.0012 998.5C33.9023 961.683 73.2964 942.906 105.999 884.5C123.948 852.442 127.833 831.204 136.499 795.5C149.643 741.349 139.615 708.15 150.499 653.5C160.888 601.334 169.465 572.274 189.499 523C201.802 492.741 213.203 477.763 225.499 447.5C235.471 422.956 243.586 409.623 247.999 383.5C252.324 357.893 239.076 341.389 247.999 317C257.504 291.021 280.444 287.525 294.999 264C308.679 241.89 316.146 228.133 320.499 202.5C323.768 183.25 326.763 170.994 320.499 152.5C307.05 112.791 262.808 121.624 225.499 102.5C190.918 84.7744 166.439 82.7712 136.499 58.0001C116.359 41.3372 115.033 20.3577 91.9988 8.00013Z" fill="#ECE4FE"/>
</svg>
