<svg width="663" height="1491" viewBox="0 0 663 1491" fill="none" xmlns="http://www.w3.org/2000/svg">
<path d="M384.501 3.49969C504.857 -16.6992 562.737 77.2893 660.001 151C1155.97 526.863 1448.51 1872.78 934.501 1522C881.427 1485.78 716.126 1537.78 660.001 1506.5C606.434 1476.64 553.458 1447.74 509.001 1405.5C458.685 1357.69 523.001 1390.5 384.501 1271.5C246.001 1152.5 181.782 1186.23 71.5011 1023.5C18.9815 946.004 2.00107 824.5 2.00107 757.5C2.00107 690.5 13.8344 630 2.00107 574C-9.83226 518 34.5395 432.617 71.5011 348C116.623 244.701 138.751 177.449 222.501 102C277.511 52.4416 311.481 15.7544 384.501 3.49969Z" fill="#ECE4FE"/>
</svg>
