<svg width="50" height="50" viewBox="0 0 50 50" fill="none" xmlns="http://www.w3.org/2000/svg">
<path d="M26.1247 18.9901L25.5713 17.0005L24.327 14.8981L24.0997 14.6247C23.5699 13.9892 23.1631 13.6083 22.6912 13.3768C22.1993 13.1359 21.5443 13.0072 20.5369 12.8843L19.227 12.7946C18.5201 12.8524 16.9333 13.342 15.6553 14.4085C15.1669 14.816 14.7358 15.3068 14.4411 15.8849C14.1541 16.4483 13.9923 17.1062 14.0289 17.8662C14.0992 19.3113 14.8646 21.1373 16.7673 23.4181L16.7951 23.4511L33.8019 23.47C36.6767 20.5964 37.3535 17.5019 36.6886 15.1267C36.4163 14.1552 35.9208 13.3054 35.2635 12.6487C34.6198 12.005 33.8173 11.5443 32.9173 11.3365C31.0068 10.8947 28.6269 11.5833 26.2918 14.0182L27.5509 16.1454L28.184 18.4208L26.1247 18.9901ZM23.6284 11.4599C24.1014 11.692 24.5083 11.9819 24.9164 12.3676C26.8115 10.45 28.784 9.45319 30.6348 9.16263C30.235 7.48486 29.0285 6.45139 27.5568 5.99548C26.678 5.72324 25.7024 5.64469 24.7339 5.74745C23.7589 5.8508 22.8016 6.13662 21.966 6.58958V6.59431C20.466 7.40809 19.3522 8.78881 19.2742 10.6538C19.775 10.6898 20.277 10.7176 20.7772 10.7571C22.0174 10.9077 22.866 11.0867 23.6284 11.4599ZM14.2829 12.768C15.1752 12.0239 16.2146 11.4941 17.1382 11.151C16.9988 8.14865 18.6524 5.95473 20.9443 4.71043L20.9461 4.71398C22.0351 4.12342 23.2664 3.75373 24.5072 3.62145C25.7556 3.48916 27.0259 3.59369 28.1846 3.95275C30.5007 4.67027 32.3686 6.36045 32.8127 9.14314C33.0094 9.17149 33.2031 9.20751 33.3944 9.25181C34.6954 9.5524 35.8529 10.2156 36.7783 11.1416C37.6907 12.0546 38.3758 13.2227 38.7472 14.5497C39.613 17.6407 38.7874 21.6039 35.1502 25.1431C34.0234 28.159 32.8978 31.1402 31.732 34.1402L31.7238 34.1697L29.1224 40.3682L27.8781 43.5224L26.6237 46.96L23.4961 46.8395L21.3046 40.7036C19.3427 36.0926 18.5278 34.0451 17.0148 29.388L15.0281 24.6712C12.8638 22.0432 11.9844 19.8174 11.8947 17.966C11.838 16.7997 12.0884 15.7857 12.5331 14.9146C12.9689 14.0577 13.589 13.3473 14.2829 12.768ZM17.7294 25.5866L19.0433 28.7106L20.7193 33.8691L23.3219 39.9843L25.028 44.7613L25.1491 44.7661C26.57 40.8708 28.1403 37.1727 29.7483 33.3412L29.7507 33.3418L31.2489 29.4843L32.6994 25.6031L17.7294 25.5866Z" fill="black"/>
</svg>
