<svg width="48" height="48" viewBox="0 0 48 48" fill="none" xmlns="http://www.w3.org/2000/svg">
<path d="M35.7962 29.8845L43.1329 22.7525L21.158 22.846L21.1529 21.4814L43.117 21.3878L36.0774 14.7184L37.0191 13.7286L45.3524 21.6231L45.2425 22.4939L45.2991 22.5523L45.2254 22.6238L45.2107 22.7434L45.1019 22.7439L36.7487 30.8636L35.7962 29.8845ZM10.7995 4.95754L10.5586 5.35439V39.6068L10.9197 40.0479L11.2724 40.3206H38.3894L38.9041 40.1953L39.1026 39.6068L39.132 32.0298L38.3894 32.4708L38.0804 32.9493L37.6756 33.1846V38.1798L37.5208 38.7536L36.9618 38.8931H12.6993L12.2855 38.7882L11.9861 38.1798V6.78137L12.6993 6.06816H36.9618L37.6756 6.78137V11.7766L38.1246 12.0856L38.3894 12.4904L39.0878 12.8135L39.1026 5.35439L38.801 4.91275L38.3894 4.64062H11.2724L10.7995 4.95754Z" fill="#1F1B20"/>
<path d="M35.2969 29.369L41.3585 23.4763L20.4449 23.5659L20.4347 20.7669L41.3251 20.6773L35.0622 14.7444L36.9937 12.7136C40.0336 15.5914 43.0758 18.4674 46.1106 21.3509L45.9983 22.2404L46.3158 22.5675L45.9099 22.9604L45.8486 23.457L45.3968 23.4593L36.7352 31.8777L34.7815 29.869L35.2969 29.369ZM11.3297 5.46595L11.2799 5.54872V6.46999L12.3899 5.35993H11.4885L11.3297 5.46595ZM9.94699 4.98236L10.2718 4.44774L11.0593 3.91992H38.6038L39.3159 4.39104L39.821 5.13089L39.804 13.9359L37.9002 13.0549L37.5986 12.5934L36.9568 12.1518V7.07604L36.6677 6.78747H12.9988L12.7074 7.07888V38.0153L12.7845 38.1718L36.882 38.1723L36.9381 38.1582L36.9568 38.0884V32.7717L37.5703 32.4151L37.8775 31.9383L39.855 30.7642L39.8204 39.7274L39.4593 40.7978L38.466 41.0399H11.0315L10.4113 40.5603L9.83984 39.8624V5.15924L9.94699 4.98236ZM11.2799 38.3679V39.3499L11.4307 39.5341L11.5157 39.5999H12.5662L11.7895 39.4026L11.2799 38.3679ZM37.094 39.5999H38.3147L38.3509 39.5908L38.3872 39.4842L38.3918 38.2886L38.106 39.347L37.094 39.5999ZM38.3969 36.9835L38.4099 33.5881L38.3969 33.5961V36.9835ZM37.2704 5.35993L38.3844 6.47282L38.3861 5.57707L38.2886 5.43363L38.1769 5.35993H37.2704Z" fill="black"/>
</svg>
