<svg width="26" height="26" viewBox="0 0 26 26" fill="none" xmlns="http://www.w3.org/2000/svg">
<path fill-rule="evenodd" clip-rule="evenodd" d="M14.0632 3.03439C19.0971 3.56591 23.0195 7.82456 23.0195 12.9993C23.0195 18.5337 18.5331 23.0202 12.9987 23.0202C7.82391 23.0202 3.56527 19.0977 3.03374 14.0638C4.47103 15.8884 6.7017 17.0618 9.20703 17.0618C13.5448 17.0618 17.0612 13.5454 17.0612 9.20768C17.0612 6.70234 15.8878 4.47167 14.0632 3.03439ZM24.6445 12.9993C24.6445 6.56753 19.4305 1.35352 12.9987 1.35352C12.2223 1.35352 11.8337 1.97238 11.7671 2.4653C11.7031 2.93949 11.8784 3.54256 12.4234 3.87191C14.2308 4.96405 15.4362 6.94549 15.4362 9.20768C15.4362 12.648 12.6473 15.4368 9.20703 15.4368C6.94484 15.4368 4.96341 14.2315 3.87126 12.4241C3.54191 11.879 2.93884 11.7037 2.46465 11.7678C1.97173 11.8343 1.35287 12.223 1.35287 12.9993C1.35287 19.4312 6.56688 24.6452 12.9987 24.6452C19.4305 24.6452 24.6445 19.4312 24.6445 12.9993Z" fill="#7356AC"/>
</svg>
