<svg width="48" height="48" viewBox="0 0 48 48" fill="none" xmlns="http://www.w3.org/2000/svg">
<path d="M5.6038 32.59L6.06358 27.796L6.2484 24.2805C5.75801 22.9243 3.64561 16.4035 6.99676 11.5074C8.02914 9.99996 9.56326 8.45563 11.8446 7.42098C14.0693 6.41241 16.9969 5.89876 20.8452 6.40844C25.0995 6.97254 28.4246 9.20285 30.41 12.0936C31.549 13.7519 32.2497 15.6364 32.4345 17.5583C42.8797 18.3889 44.881 23.832 44.6519 29.0002C44.5521 31.2475 44.0147 33.3593 43.6008 34.9847C43.3797 35.8538 43.1972 36.5704 43.1614 36.9503C43.3542 40.7964 43.0968 40.7935 42.9216 44.6396L40.1261 42.5198L40.1289 42.5176C39.3766 41.7312 38.9673 41.2675 38.6742 40.9353C38.1724 40.3666 38.0619 40.2419 37.2035 39.7078C35.4296 40.9891 33.3257 41.5317 31.1623 41.4846C29.2427 41.4427 27.276 40.933 25.4635 40.0645C23.6612 39.1999 21.9995 37.9753 20.678 36.4984C19.0435 34.6712 17.9216 32.4545 17.6727 30.0411C15.956 29.8937 14.2354 29.5195 12.695 29.0399L12.424 28.9378C11.2096 30.4436 10.3383 31.3229 8.92603 32.7743L5.33394 35.4014L5.6038 32.59ZM8.59154 27.9831L8.4328 29.6414L9.39829 28.6481L11.5969 25.9217L13.4496 26.6162C14.8448 27.0499 16.4011 27.3867 17.9465 27.5131C19.234 27.6191 20.5022 27.5806 21.6401 27.3317C25.4828 26.2976 27.8673 24.4006 29.0431 22.2038C29.7796 20.8295 30.0505 19.326 29.9162 17.8441C29.7795 16.3411 29.2245 14.8506 28.314 13.5246C26.7096 11.1894 24.0014 9.38484 20.517 8.92279C17.1987 8.48285 14.728 8.90181 12.8878 9.73634C11.1042 10.5448 9.90286 11.7558 9.09328 12.9384C6.2314 17.1189 8.52918 23.1369 8.70493 23.5973C8.70493 23.6324 8.7928 23.8422 8.80981 23.8881C8.73781 25.2278 8.71513 26.6599 8.59154 27.9831ZM32.3716 20.0993C32.2038 21.2287 31.8449 22.3398 31.2791 23.396C29.7892 26.1791 26.8842 28.5517 22.2955 29.7854L22.2461 29.7956C21.5936 29.9419 20.9178 30.0331 20.2307 30.0773C20.4835 31.8201 21.343 33.4421 22.5665 34.8095C23.6635 36.0358 25.0491 37.0557 26.5565 37.7786C28.0538 38.4963 29.6616 38.917 31.2122 38.951C33.078 38.9912 34.8644 38.4685 36.2607 37.219C38.2495 37.4838 38.8873 37.3573 40.5723 39.256L41.1415 39.8944L40.6193 37.1799L40.621 37.0427C40.6278 36.3578 40.8552 35.4661 41.1364 34.3588C41.5258 32.8298 42.0316 30.8438 42.1177 28.8913C42.2923 24.963 40.6805 20.8244 32.3716 20.0993Z" fill="black"/>
</svg>
