<svg width="40" height="40" viewBox="0 0 40 40" fill="none" xmlns="http://www.w3.org/2000/svg">
<g clip-path="url(#clip0_1025_133)">
<rect x="29.3359" y="16.332" width="10" height="10" rx="5" stroke="black" stroke-width="1.5"/>
<path d="M21 21.3327V18.8327C21 15.69 21 14.1186 20.0237 13.1423C19.0474 12.166 17.476 12.166 14.3333 12.166H13.3333C12.7143 12.166 12.4047 12.166 12.1436 12.1866C8.87443 12.4439 6.27784 15.0404 6.02055 18.3096C6 18.5707 6 18.8803 6 19.4993C6 19.6541 6 19.7315 6.00514 19.7968C6.06946 20.6141 6.71861 21.2632 7.5359 21.3275C7.60118 21.3327 7.67857 21.3327 7.83333 21.3327H21ZM21 21.3327H29.3333" stroke="black" stroke-width="1.5" stroke-linecap="round"/>
<path d="M18.5 21.332C18.5 24.0935 16.2614 26.332 13.5 26.332C10.7386 26.332 8.5 24.0935 8.5 21.332" stroke="black" stroke-width="1.5" stroke-linecap="round"/>
<path d="M22.668 3H23.5477C25.5524 3 26.5548 3 27.3603 3.49783C28.1658 3.99566 28.6141 4.89219 29.5106 6.68524L34.3346 16.3333" stroke="black" stroke-width="1.5" stroke-linecap="round"/>
<path d="M32.9056 12.9993L34.0418 12.1623C34.4799 11.8396 34.6989 11.6782 34.8513 11.4678C34.9549 11.3247 35.0352 11.1659 35.0889 10.9975C35.168 10.7501 35.168 10.478 35.168 9.93389C35.168 8.90481 35.168 8.39027 34.9486 8.0061C34.8008 7.74747 34.5865 7.53315 34.3279 7.38543C33.9437 7.16602 33.4292 7.16602 32.4001 7.16602H30.168" stroke="black" stroke-width="1.5" stroke-linecap="round"/>
<circle cx="34.3359" cy="21.332" r="5" stroke="black" stroke-width="1.5"/>
</g>
<defs>
<clipPath id="clip0_1025_133">
<rect width="40" height="40" rx="3" fill="white"/>
</clipPath>
</defs>
</svg>
