<svg width="28" height="28" viewBox="0 0 28 28" fill="none" xmlns="http://www.w3.org/2000/svg">
<path fill-rule="evenodd" clip-rule="evenodd" d="M13.9987 1.45898C14.4819 1.45898 14.8737 1.85074 14.8737 2.33398V4.66732C14.8737 5.15057 14.4819 5.54232 13.9987 5.54232C13.5155 5.54232 13.1237 5.15057 13.1237 4.66732V2.33398C13.1237 1.85074 13.5155 1.45898 13.9987 1.45898ZM4.27879 4.33609C4.60487 3.97944 5.15834 3.95466 5.51499 4.28074L8.10734 6.65093C8.46399 6.97701 8.48877 7.53048 8.16268 7.88712C7.8366 8.24377 7.28313 8.26855 6.92648 7.94247L4.33413 5.57229C3.97748 5.2462 3.95271 4.69274 4.27879 4.33609ZM23.7186 4.33609C24.0447 4.69274 24.0199 5.2462 23.6633 5.57229L21.0709 7.94247C20.7143 8.26855 20.1608 8.24377 19.8347 7.88712C19.5086 7.53048 19.5334 6.97701 19.8901 6.65093L22.4824 4.28074C22.8391 3.95466 23.3925 3.97944 23.7186 4.33609ZM13.9987 9.04232C11.2603 9.04232 9.04037 11.2622 9.04037 14.0007C9.04037 16.7391 11.2603 18.959 13.9987 18.959C16.7371 18.959 18.957 16.7391 18.957 14.0007C18.957 11.2622 16.7371 9.04232 13.9987 9.04232ZM7.29036 14.0007C7.29036 10.2957 10.2938 7.29232 13.9987 7.29232C17.7036 7.29232 20.707 10.2957 20.707 14.0007C20.707 17.7056 17.7036 20.709 13.9987 20.709C10.2938 20.709 7.29036 17.7056 7.29036 14.0007ZM1.45703 14.0007C1.45703 13.5174 1.84878 13.1257 2.33203 13.1257H4.66536C5.14861 13.1257 5.54036 13.5174 5.54036 14.0007C5.54036 14.4839 5.14861 14.8757 4.66536 14.8757H2.33203C1.84878 14.8757 1.45703 14.4839 1.45703 14.0007ZM22.457 14.0007C22.457 13.5174 22.8488 13.1257 23.332 13.1257H25.6654C26.1486 13.1257 26.5404 13.5174 26.5404 14.0007C26.5404 14.4839 26.1486 14.8757 25.6654 14.8757H23.332C22.8488 14.8757 22.457 14.4839 22.457 14.0007ZM19.8618 19.8634C20.2035 19.5217 20.7576 19.5217 21.0992 19.8634L23.6916 22.4561C24.0333 22.7978 24.0332 23.3519 23.6915 23.6935C23.3498 24.0352 22.7958 24.0352 22.4541 23.6935L19.8617 21.1008C19.52 20.7591 19.5201 20.2051 19.8618 19.8634ZM8.13581 19.8635C8.47752 20.2053 8.47752 20.7593 8.13581 21.101L5.54322 23.6936C5.20151 24.0353 4.64749 24.0353 4.30578 23.6936C3.96407 23.3519 3.96407 22.7978 4.30578 22.4561L6.89837 19.8635C7.24008 19.5218 7.7941 19.5218 8.13581 19.8635ZM13.9987 22.459C14.4819 22.459 14.8737 22.8507 14.8737 23.334V25.6673C14.8737 26.1506 14.4819 26.5423 13.9987 26.5423C13.5155 26.5423 13.1237 26.1506 13.1237 25.6673V23.334C13.1237 22.8507 13.5155 22.459 13.9987 22.459Z" fill="#FFD600"/>
</svg>
